<svg xmlns="http://www.w3.org/2000/svg" viewBox="0 0 24 24" width="24" height="24" fill="none" stroke="#00E676" stroke-width="1.5" stroke-linecap="round" stroke-linejoin="round">
  <path d="M9.5 2A2.5 2.5 0 0 1 12 4.5v15a2.5 2.5 0 0 1-4.9-1"/>
  <path d="M14.5 2A2.5 2.5 0 0 0 12 4.5v15a2.5 2.5 0 0 0 4.9-1"/>
  <path d="M12 4.5a2.5 2.5 0 0 1 2.5 2.5M12 7a2.5 2.5 0 0 0-2.5 2.5"/>
  <path d="M12 9.5a2.5 2.5 0 0 1 2.5 2.5M12 12a2.5 2.5 0 0 0-2.5 2.5"/>
  <path d="M12 14.5a2.5 2.5 0 0 1 2.5 2.5M12 17a2.5 2.5 0 0 0-2.5 2.5"/>
  <circle cx="12" cy="4.5" r="1" fill="#00E676"/>
  <circle cx="12" cy="9.5" r="1" fill="#00E676"/>
  <circle cx="12" cy="14.5" r="1" fill="#00E676"/>
  <circle cx="12" cy="19.5" r="1" fill="#00E676"/>
</svg>